# xmcd
#
# Track frame offsets:
#	150
#	35067
#	76269
#	101124
#
# Disc length: 1967 seconds
#
# Revision: 0
# Processed by: cddbd v1.5.2PL0 Copyright (c) Steve Scherf et al.
# Submitted via: EasyCDDAExtractor 9.0.0.1
#
DISCID=2b07ad04
DTITLE=Deep Purple - Velódromo Municipal Montevideo 23-11-06 Disc 2
DYEAR=2006
DGENRE=Hard Rock
TTITLE0=Highway Star
TTITLE1=Smoke On The Water
TTITLE2=Hush
TTITLE3=Black Night
EXTD=
EXTT0=
EXTT1=
EXTT2=
EXTT3=
PLAYORDER=
